<svg width="12" height="13" viewBox="0 0 12 13" fill="none" xmlns="http://www.w3.org/2000/svg">
<path d="M2.25 8.926C2.25 8.618 2.292 8.436 2.32 8.338L0.933999 8.338C0.877999 8.45 0.793999 8.786 0.793999 9.192C0.793999 10.592 1.718 11.572 3.244 11.572L4.182 11.572L4.182 12.762L5.596 12.762L5.596 11.572L11 11.572L11 9.934L5.596 9.934L5.596 8.352L4.182 8.352L4.182 9.934L3.286 9.934C2.446 9.934 2.25 9.36 2.25 8.926ZM11 5.47347L10.09 5.47347C10.748 5.08147 11.168 4.33947 11.168 3.37347C11.168 1.38547 9.614 0.167468 7.556 0.167468C5.554 0.167468 4 1.27347 4 3.31747C4 4.36747 4.49 5.15147 5.022 5.45947L0.863999 5.45947L0.863999 7.05547L11 7.05547L11 5.47347ZM7.57 1.80547C8.914 1.80547 9.726 2.57547 9.726 3.63947C9.726 4.67547 8.914 5.47347 7.57 5.47347C6.212 5.47347 5.442 4.67547 5.442 3.63947C5.442 2.56147 6.212 1.80547 7.57 1.80547Z" fill="black"/>
</svg>
