<svg width="11" height="11" viewBox="0 0 11 11" fill="none" xmlns="http://www.w3.org/2000/svg">
<path d="M11 8.34L4.182 8.34L4.182 9.95L11 9.95L11 8.34ZM1.788 10.202C2.376 10.202 2.838 9.726 2.838 9.152C2.838 8.564 2.376 8.088 1.788 8.088C1.2 8.088 0.724 8.564 0.724 9.152C0.724 9.726 1.2 10.202 1.788 10.202ZM7.066 4.62092C6.17 4.62092 5.456 4.13092 5.456 3.20692C5.456 2.18492 6.128 1.80692 6.968 1.80692L11 1.80692L11 0.182921L6.688 0.182921C5.19 0.182921 3.986 0.980921 3.986 2.64692C3.986 3.40292 4.308 4.21492 5.092 4.66292L4.182 4.66292L4.182 6.24492L11 6.24492L11 4.62092L7.066 4.62092Z" fill="black"/>
</svg>
