<svg width="10" height="17" viewBox="0 0 10 17" fill="none" xmlns="http://www.w3.org/2000/svg">
<path d="M0.0959993 13.892L0.0959994 15.362L1.118 15.362C1.72 15.362 2.182 15.684 2.182 16.412L2.182 16.762L3.624 16.762L3.624 15.502L7.054 15.502C8.328 15.502 9.084 14.718 9.084 13.458C9.084 12.87 8.972 12.562 8.93 12.464L7.586 12.464C7.6 12.534 7.642 12.8 7.642 13.024C7.642 13.626 7.39 13.892 6.788 13.892L3.624 13.892L3.624 12.478L2.182 12.478L2.182 13.892L0.0959993 13.892ZM2.182 6.87702L6.9 8.48701L2.182 9.87302L2.182 11.609L9 9.39701L9 7.73101L4.1 6.07901L9 4.38501L9 2.76101L2.182 0.577014L2.182 2.22901L6.9 3.58701L2.182 5.19702L2.182 6.87702Z" fill="black"/>
</svg>
