<?xml version="1.0" encoding="utf-8"?><svg viewBox="0 0 492 492" xmlns="http://www.w3.org/2000/svg" xmlns:xlink="http://www.w3.org/1999/xlink"><style>:root>svg{display:none}:root>svg:target{display:block}</style><svg viewBox="0 0 24 24" id="basket" xmlns="http://www.w3.org/2000/svg"><path fill-rule="evenodd" clip-rule="evenodd" d="M5.699 7l4.398-4.215a2.75 2.75 0 013.806 0L18.3 7h2.546a1 1 0 01.99 1.141l-1.469 10.283A3 3 0 0117.398 21H6.602a3 3 0 01-2.97-2.576L2.163 8.141A1 1 0 013.153 7h2.546zm5.436-3.132a1.25 1.25 0 011.73 0L16.133 7H7.867l3.268-3.132zM3.73 8.5l1.387 9.712A1.5 1.5 0 006.602 19.5h10.796a1.5 1.5 0 001.485-1.288L20.27 8.5H3.73z"/><path fill-rule="evenodd" clip-rule="evenodd" d="M8 11.25a.75.75 0 01.75.75v4a.75.75 0 01-1.5 0v-4a.75.75 0 01.75-.75zm4 0a.75.75 0 01.75.75v4a.75.75 0 01-1.5 0v-4a.75.75 0 01.75-.75zm4 0a.75.75 0 01.75.75v4a.75.75 0 01-1.5 0v-4a.75.75 0 01.75-.75z"/></svg><svg viewBox="0 0 492 492" id="cancel" xmlns="http://www.w3.org/2000/svg"><path d="M300.188 246L484.14 62.04c5.06-5.064 7.852-11.82 7.86-19.024 0-7.208-2.792-13.972-7.86-19.028L468.02 7.872C462.952 2.796 456.196.016 448.984.016c-7.2 0-13.956 2.78-19.024 7.856L246.008 191.82 62.048 7.872C56.988 2.796 50.228.016 43.02.016c-7.2 0-13.96 2.78-19.02 7.856L7.872 23.988c-10.496 10.496-10.496 27.568 0 38.052L191.828 246 7.872 429.952C2.808 435.024.02 441.78.02 448.984c0 7.204 2.788 13.96 7.852 19.028l16.124 16.116c5.06 5.072 11.824 7.856 19.02 7.856 7.208 0 13.968-2.784 19.028-7.856l183.96-183.952 183.952 183.952c5.068 5.072 11.824 7.856 19.024 7.856h.008c7.204 0 13.96-2.784 19.028-7.856l16.12-16.116c5.06-5.064 7.852-11.824 7.852-19.028 0-7.204-2.792-13.96-7.852-19.028L300.188 246z"/></svg><svg viewBox="0 0 468 310" id="digit" xmlns="http://www.w3.org/2000/svg"><path opacity=".2" d="M48.65 310l73.1-112.66-.86-.86c-3.153 1.72-7.453 3.01-12.9 3.87-5.16.86-10.32 1.29-15.48 1.29-13.473 0-25.8-2.58-36.98-7.74-11.18-5.16-20.927-12.183-29.24-21.07-8.027-8.887-14.333-19.207-18.92-30.96-4.3-11.753-6.45-24.223-6.45-37.41 0-15.767 2.723-30.1 8.17-43 5.447-12.9 12.9-23.793 22.36-32.68 9.747-9.173 21.213-16.197 34.4-21.07C79.323 2.837 93.8.4 109.28.4c15.767 0 30.243 2.437 43.43 7.31 13.473 4.587 24.94 11.323 34.4 20.21 9.747 8.887 17.2 19.78 22.36 32.68 5.447 12.9 8.17 27.377 8.17 43.43s-2.723 30.673-8.17 43.86c-5.16 12.9-11.897 26.087-20.21 39.56L111.43 310H48.65zm114.81-205.11c0-7.74-1.433-14.907-4.3-21.5-2.867-6.88-6.88-12.757-12.04-17.63-4.873-5.16-10.75-9.173-17.63-12.04-6.593-2.867-13.76-4.3-21.5-4.3s-15.05 1.433-21.93 4.3c-6.593 2.867-12.47 6.88-17.63 12.04-4.873 4.873-8.743 10.75-11.61 17.63-2.867 6.593-4.3 13.76-4.3 21.5s1.433 15.05 4.3 21.93c2.867 6.593 6.737 12.47 11.61 17.63 5.16 4.873 11.037 8.743 17.63 11.61 6.88 2.867 14.19 4.3 21.93 4.3s14.907-1.433 21.5-4.3c6.88-2.867 12.757-6.737 17.63-11.61 5.16-5.16 9.173-11.037 12.04-17.63 2.867-6.88 4.3-14.19 4.3-21.93zm208.463 143.19h-129.43v-51.17L365.043 5.56h58.48v196.08h44.29v46.44h-44.29V310h-51.6v-61.92zm0-169.42h-.86l-76.11 122.98h76.97V78.66z"/></svg><svg viewBox="0 0 213.333 213.333" id="down-arrow" xmlns="http://www.w3.org/2000/svg"><path d="M0 53.333L106.667 160 213.333 53.333z"/></svg><svg viewBox="0 0 12 13" id="fb" xmlns="http://www.w3.org/2000/svg"><path d="M2.25 8.926c0-.308.042-.49.07-.588H.934c-.056.112-.14.448-.14.854 0 1.4.924 2.38 2.45 2.38h.938v1.19h1.414v-1.19H11V9.934H5.596V8.352H4.182v1.582h-.896c-.84 0-1.036-.574-1.036-1.008zM11 5.473h-.91c.658-.392 1.078-1.134 1.078-2.1 0-1.988-1.554-3.206-3.612-3.206C5.554.167 4 1.273 4 3.317c0 1.05.49 1.834 1.022 2.142H.864v1.596H11V5.473zM7.57 1.805c1.344 0 2.156.77 2.156 1.834 0 1.036-.812 1.834-2.156 1.834-1.358 0-2.128-.798-2.128-1.834 0-1.078.77-1.834 2.128-1.834z"/></svg><svg viewBox="0 0 11 11" id="in" xmlns="http://www.w3.org/2000/svg"><path d="M11 8.34H4.182v1.61H11V8.34zm-9.212 1.862c.588 0 1.05-.476 1.05-1.05 0-.588-.462-1.064-1.05-1.064-.588 0-1.064.476-1.064 1.064 0 .574.476 1.05 1.064 1.05zm5.278-5.581c-.896 0-1.61-.49-1.61-1.414 0-1.022.672-1.4 1.512-1.4H11V.183H6.688C5.19.183 3.986.98 3.986 2.647c0 .756.322 1.568 1.106 2.016h-.91v1.582H11V4.62H7.066z"/></svg><svg viewBox="0 0 116 32" id="logo" xmlns="http://www.w3.org/2000/svg"><path d="M14.208 31H1.184v-3.744l7.456-8.32H1.376v-3.68H14.08v3.552l-7.68 8.48h7.808V31zm2.698-4.288c0-1.344.437-2.421 1.312-3.232.874-.81 2.005-1.323 3.392-1.536l3.872-.576c.79-.107 1.184-.48 1.184-1.12 0-.597-.235-1.088-.704-1.472-.448-.384-1.099-.576-1.952-.576-.896 0-1.61.245-2.144.736a2.78 2.78 0 00-.864 1.824l-3.776-.8c.15-1.365.821-2.57 2.016-3.616 1.194-1.045 2.773-1.568 4.736-1.568 2.346 0 4.074.565 5.184 1.696 1.11 1.11 1.664 2.539 1.664 4.288v7.744c0 .939.064 1.77.192 2.496h-3.904c-.107-.47-.16-1.099-.16-1.888-1.003 1.557-2.55 2.336-4.64 2.336-1.622 0-2.934-.47-3.936-1.408-.982-.939-1.472-2.048-1.472-3.328zm6.304 1.568c1.002 0 1.824-.277 2.464-.832.661-.576.992-1.515.992-2.816v-.704l-3.552.544c-1.302.192-1.952.853-1.952 1.984 0 .512.181.95.544 1.312.362.341.864.512 1.504.512zM39.372 31h-4.256V15.256h4.256V31zm-4.768-20.896c0-.725.256-1.344.768-1.856.512-.533 1.13-.8 1.856-.8.725 0 1.344.256 1.856.768s.768 1.141.768 1.888c0 .704-.256 1.312-.768 1.824a2.529 2.529 0 01-1.856.768 2.529 2.529 0 01-1.856-.768c-.512-.512-.768-1.12-.768-1.824zm13.58 11.84V31h-4.256V15.256h4.128v1.952a4.39 4.39 0 011.92-1.76 5.917 5.917 0 012.624-.608c1.856 0 3.264.587 4.224 1.76.982 1.152 1.472 2.645 1.472 4.48V31H54.04v-9.184c0-.939-.245-1.696-.736-2.272-.47-.576-1.194-.864-2.176-.864-.896 0-1.61.31-2.144.928-.533.619-.8 1.397-.8 2.336zm18.656 4.48c.79.79 1.738 1.184 2.848 1.184 1.11 0 2.048-.395 2.816-1.184.79-.79 1.184-1.888 1.184-3.296s-.395-2.507-1.184-3.296c-.768-.79-1.707-1.184-2.816-1.184-1.11 0-2.059.395-2.848 1.184-.768.79-1.152 1.888-1.152 3.296s.384 2.507 1.152 3.296zm-3.072-9.28c1.578-1.579 3.552-2.368 5.92-2.368s4.33.79 5.888 2.368c1.578 1.579 2.368 3.573 2.368 5.984 0 2.41-.79 4.405-2.368 5.984-1.558 1.579-3.52 2.368-5.888 2.368s-4.342-.79-5.92-2.368c-1.558-1.579-2.336-3.573-2.336-5.984 0-2.41.778-4.405 2.336-5.984zm21.76 9.28c.789.79 1.738 1.184 2.847 1.184 1.11 0 2.048-.395 2.816-1.184.79-.79 1.184-1.888 1.184-3.296s-.394-2.507-1.184-3.296c-.768-.79-1.706-1.184-2.816-1.184-1.11 0-2.058.395-2.848 1.184-.768.79-1.152 1.888-1.152 3.296s.384 2.507 1.152 3.296zm-3.073-9.28c1.579-1.579 3.552-2.368 5.92-2.368s4.33.79 5.888 2.368c1.579 1.579 2.368 3.573 2.368 5.984 0 2.41-.79 4.405-2.368 5.984-1.557 1.579-3.52 2.368-5.888 2.368s-4.341-.79-5.92-2.368c-1.557-1.579-2.336-3.573-2.336-5.984 0-2.41.779-4.405 2.336-5.984zm21.673-12.296V3.492h-6.972v1.356h2.76V12h1.44V4.848h2.772zM114.669 12V3.492h-1.956l-2.724 6.492-2.76-6.492h-1.92V12h1.404V5.76l2.628 6.24h1.248l2.652-6.264V12h1.428z"/></svg><svg viewBox="0 0 24 24" id="person" xmlns="http://www.w3.org/2000/svg"><path fill-rule="evenodd" clip-rule="evenodd" d="M12 10.5a3.5 3.5 0 100-7 3.5 3.5 0 000 7zm0 1.5a5 5 0 100-10 5 5 0 000 10zm-3 3.75A4.25 4.25 0 004.75 20v1a.75.75 0 01-1.5 0v-1A5.75 5.75 0 019 14.25h6A5.75 5.75 0 0120.75 20v1a.75.75 0 01-1.5 0v-1A4.25 4.25 0 0015 15.75H9z"/></svg><svg viewBox="0 0 20 20" id="play" xmlns="http://www.w3.org/2000/svg"><circle cx="10" cy="10" r="9.5"/><path d="M8.5 6.647L13.146 10 8.5 13.353V6.647z"/></svg><svg viewBox="0 0 24 24" id="search" xmlns="http://www.w3.org/2000/svg"><path fill-rule="evenodd" clip-rule="evenodd" d="M17.872 16.812a9 9 0 10-1.06 1.06l2.658 2.658a.75.75 0 101.06-1.06l-2.658-2.658zM18.5 11a7.5 7.5 0 11-15 0 7.5 7.5 0 0115 0z"/></svg><svg viewBox="0 0 17 20" id="shop-bag" xmlns="http://www.w3.org/2000/svg"><path d="M16.544 19.165L15.327 5.61a.718.718 0 00-.715-.653h-2.51V3.826A3.83 3.83 0 008.276 0a3.83 3.83 0 00-3.825 3.826v1.132H1.94a.718.718 0 00-.715.653L.003 19.218A.718.718 0 00.718 20h15.118a.718.718 0 00.708-.835zM5.887 3.825a2.393 2.393 0 012.39-2.39 2.393 2.393 0 012.39 2.39v1.133h-4.78V3.826zm-4.384 14.74L2.596 6.392h1.855v1.284a.718.718 0 101.436 0V6.393h4.78v1.284a.718.718 0 101.435 0V6.393h1.854l1.093 12.171H1.503z"/></svg><svg viewBox="0 0 10 17" id="tw" xmlns="http://www.w3.org/2000/svg"><path d="M.096 13.892v1.47h1.022c.602 0 1.064.322 1.064 1.05v.35h1.442v-1.26h3.43c1.274 0 2.03-.784 2.03-2.044 0-.588-.112-.896-.154-.994H7.586c.014.07.056.336.056.56 0 .602-.252.868-.854.868H3.624v-1.414H2.182v1.414H.096zm2.086-7.015L6.9 8.487 2.182 9.873v1.736L9 9.397V7.731L4.1 6.079 9 4.385V2.761L2.182.577v1.652L6.9 3.587l-4.718 1.61v1.68z"/></svg></svg>