<?xml version="1.0" encoding="utf-8"?><svg viewBox="0 0 492 492" xmlns="http://www.w3.org/2000/svg" xmlns:xlink="http://www.w3.org/1999/xlink"><style>:root>svg{display:none}:root>svg:target{display:block}</style><svg viewBox="0 0 24 24" id="basket" xmlns="http://www.w3.org/2000/svg"><path fill-rule="evenodd" clip-rule="evenodd" d="M5.699 7l4.398-4.215a2.75 2.75 0 013.806 0L18.3 7h2.546a1 1 0 01.99 1.141l-1.469 10.283A3 3 0 0117.398 21H6.602a3 3 0 01-2.97-2.576L2.163 8.141A1 1 0 013.153 7h2.546zm5.436-3.132a1.25 1.25 0 011.73 0L16.133 7H7.867l3.268-3.132zM3.73 8.5l1.387 9.712A1.5 1.5 0 006.602 19.5h10.796a1.5 1.5 0 001.485-1.288L20.27 8.5H3.73z"/><path fill-rule="evenodd" clip-rule="evenodd" d="M8 11.25a.75.75 0 01.75.75v4a.75.75 0 01-1.5 0v-4a.75.75 0 01.75-.75zm4 0a.75.75 0 01.75.75v4a.75.75 0 01-1.5 0v-4a.75.75 0 01.75-.75zm4 0a.75.75 0 01.75.75v4a.75.75 0 01-1.5 0v-4a.75.75 0 01.75-.75z"/></svg><svg viewBox="0 0 492 492" id="cancel" xmlns="http://www.w3.org/2000/svg"><path d="M300.188 246L484.14 62.04c5.06-5.064 7.852-11.82 7.86-19.024 0-7.208-2.792-13.972-7.86-19.028L468.02 7.872C462.952 2.796 456.196.016 448.984.016c-7.2 0-13.956 2.78-19.024 7.856L246.008 191.82 62.048 7.872C56.988 2.796 50.228.016 43.02.016c-7.2 0-13.96 2.78-19.02 7.856L7.872 23.988c-10.496 10.496-10.496 27.568 0 38.052L191.828 246 7.872 429.952C2.808 435.024.02 441.78.02 448.984c0 7.204 2.788 13.96 7.852 19.028l16.124 16.116c5.06 5.072 11.824 7.856 19.02 7.856 7.208 0 13.968-2.784 19.028-7.856l183.96-183.952 183.952 183.952c5.068 5.072 11.824 7.856 19.024 7.856h.008c7.204 0 13.96-2.784 19.028-7.856l16.12-16.116c5.06-5.064 7.852-11.824 7.852-19.028 0-7.204-2.792-13.96-7.852-19.028L300.188 246z"/></svg><svg viewBox="0 0 213.333 213.333" id="down-arrow" xmlns="http://www.w3.org/2000/svg"><path d="M0 53.333L106.667 160 213.333 53.333z"/></svg><svg viewBox="0 0 12 13" id="fb" xmlns="http://www.w3.org/2000/svg"><path d="M2.25 8.926c0-.308.042-.49.07-.588H.934c-.056.112-.14.448-.14.854 0 1.4.924 2.38 2.45 2.38h.938v1.19h1.414v-1.19H11V9.934H5.596V8.352H4.182v1.582h-.896c-.84 0-1.036-.574-1.036-1.008zM11 5.473h-.91c.658-.392 1.078-1.134 1.078-2.1 0-1.988-1.554-3.206-3.612-3.206C5.554.167 4 1.273 4 3.317c0 1.05.49 1.834 1.022 2.142H.864v1.596H11V5.473zM7.57 1.805c1.344 0 2.156.77 2.156 1.834 0 1.036-.812 1.834-2.156 1.834-1.358 0-2.128-.798-2.128-1.834 0-1.078.77-1.834 2.128-1.834z"/></svg><svg viewBox="0 0 11 11" id="in" xmlns="http://www.w3.org/2000/svg"><path d="M11 8.34H4.182v1.61H11V8.34zm-9.212 1.862c.588 0 1.05-.476 1.05-1.05 0-.588-.462-1.064-1.05-1.064-.588 0-1.064.476-1.064 1.064 0 .574.476 1.05 1.064 1.05zm5.278-5.581c-.896 0-1.61-.49-1.61-1.414 0-1.022.672-1.4 1.512-1.4H11V.183H6.688C5.19.183 3.986.98 3.986 2.647c0 .756.322 1.568 1.106 2.016h-.91v1.582H11V4.62H7.066z"/></svg><svg viewBox="0 0 24 24" id="person" xmlns="http://www.w3.org/2000/svg"><path fill-rule="evenodd" clip-rule="evenodd" d="M12 10.5a3.5 3.5 0 100-7 3.5 3.5 0 000 7zm0 1.5a5 5 0 100-10 5 5 0 000 10zm-3 3.75A4.25 4.25 0 004.75 20v1a.75.75 0 01-1.5 0v-1A5.75 5.75 0 019 14.25h6A5.75 5.75 0 0120.75 20v1a.75.75 0 01-1.5 0v-1A4.25 4.25 0 0015 15.75H9z"/></svg><svg viewBox="0 0 20 20" id="play" xmlns="http://www.w3.org/2000/svg"><circle cx="10" cy="10" r="9.5"/><path d="M8.5 6.647L13.146 10 8.5 13.353V6.647z"/></svg><svg viewBox="0 0 24 24" id="search" xmlns="http://www.w3.org/2000/svg"><path fill-rule="evenodd" clip-rule="evenodd" d="M17.872 16.812a9 9 0 10-1.06 1.06l2.658 2.658a.75.75 0 101.06-1.06l-2.658-2.658zM18.5 11a7.5 7.5 0 11-15 0 7.5 7.5 0 0115 0z"/></svg><svg viewBox="0 0 17 20" id="shop-bag" xmlns="http://www.w3.org/2000/svg"><path d="M16.544 19.165L15.327 5.61a.718.718 0 00-.715-.653h-2.51V3.826A3.83 3.83 0 008.276 0a3.83 3.83 0 00-3.825 3.826v1.132H1.94a.718.718 0 00-.715.653L.003 19.218A.718.718 0 00.718 20h15.118a.718.718 0 00.708-.835zM5.887 3.825a2.393 2.393 0 012.39-2.39 2.393 2.393 0 012.39 2.39v1.133h-4.78V3.826zm-4.384 14.74L2.596 6.392h1.855v1.284a.718.718 0 101.436 0V6.393h4.78v1.284a.718.718 0 101.435 0V6.393h1.854l1.093 12.171H1.503z"/></svg><svg viewBox="0 0 10 17" id="tw" xmlns="http://www.w3.org/2000/svg"><path d="M.096 13.892v1.47h1.022c.602 0 1.064.322 1.064 1.05v.35h1.442v-1.26h3.43c1.274 0 2.03-.784 2.03-2.044 0-.588-.112-.896-.154-.994H7.586c.014.07.056.336.056.56 0 .602-.252.868-.854.868H3.624v-1.414H2.182v1.414H.096zm2.086-7.015L6.9 8.487 2.182 9.873v1.736L9 9.397V7.731L4.1 6.079 9 4.385V2.761L2.182.577v1.652L6.9 3.587l-4.718 1.61v1.68z"/></svg></svg>